<?xml version="1.0" encoding="UTF-8"?>
<svg xmlns="http://www.w3.org/2000/svg" width="900" height="900" viewBox="0 0 900 900">
<style>
    .title { font: 700 18px Arial, Helvetica, sans-serif; fill: #111827; }
    .subtitle { font: 400 12px Arial, Helvetica, sans-serif; fill: #374151; }
    .panelTitle { font: 700 14px Arial, Helvetica, sans-serif; fill: #111827; }
    .label { font: 400 12px Arial, Helvetica, sans-serif; fill: #111827; }
    .muted { font: 400 11px Arial, Helvetica, sans-serif; fill: #6b7280; }
    .num { font: 700 12px Arial, Helvetica, sans-serif; fill: #111827; }
  </style>
<text x="40" y="30" class="title">Equity gap (Final validation holdout): MAE gaps by key groups</text>
<text x="40" y="52" class="subtitle">Gap = group MAE - overall MAE (within each condition). Poverty proxy uses median income tertiles.</text>
<rect x="30" y="85" width="410" height="442" rx="14" fill="#ffffff" stroke="#e5e7eb"/>
<text x="40" y="110" class="panelTitle">CASTHMA (overall MAE=0.274)</text>
<text x="40" y="130" class="muted">Positive gap = worse error for that group</text>
<line x1="242.8" y1="150" x2="242.8" y2="472" stroke="#9ca3af" stroke-dasharray="4 4"/>
<rect x="242.8" y="151" width="39.72082317961679" height="28" rx="8" fill="#f59e0b" opacity="0.9"/>
<text x="50" y="169" class="label">Low income</text>
<text x="420" y="169" class="num" text-anchor="end">gap=+0.060 (n=204)</text>
<rect x="217.71011244952663" y="197" width="25.08988755047337" height="28" rx="8" fill="#10b981" opacity="0.9"/>
<text x="50" y="215" class="label">Mid income</text>
<text x="420" y="215" class="num" text-anchor="end">gap=-0.038 (n=203)</text>
<rect x="227.9733952911548" y="243" width="14.826604708845231" height="28" rx="8" fill="#10b981" opacity="0.9"/>
<text x="50" y="261" class="label">High income</text>
<text x="420" y="261" class="num" text-anchor="end">gap=-0.022 (n=203)</text>
<rect x="242.8" y="289" width="1.1356118965313673" height="28" rx="8" fill="#f59e0b" opacity="0.9"/>
<text x="50" y="307" class="label">Urban (metro)</text>
<text x="420" y="307" class="num" text-anchor="end">gap=+0.002 (n=230)</text>
<rect x="242.11265595736307" y="335" width="0.6873440426369485" height="28" rx="8" fill="#10b981" opacity="0.9"/>
<text x="50" y="353" class="label">Rural (non-metro)</text>
<text x="420" y="353" class="num" text-anchor="end">gap=-0.001 (n=380)</text>
<rect x="242.8" y="381" width="156.0" height="28" rx="8" fill="#f59e0b" opacity="0.9"/>
<text x="50" y="399" class="label">Majority-BIPOC</text>
<text x="420" y="399" class="num" text-anchor="end">gap=+0.236 (n=66)</text>
<rect x="223.87352941176485" y="427" width="18.926470588235166" height="28" rx="8" fill="#10b981" opacity="0.9"/>
<text x="50" y="445" class="label">Majority-white</text>
<text x="420" y="445" class="num" text-anchor="end">gap=-0.029 (n=544)</text>
<text x="40" y="505" class="muted">Proxies: income tertiles; metro vs non-metro; Majority-BIPOC (pct_white<50%).</text>
<rect x="460" y="85" width="410" height="442" rx="14" fill="#ffffff" stroke="#e5e7eb"/>
<text x="470" y="110" class="panelTitle">COPD (overall MAE=0.430)</text>
<text x="470" y="130" class="muted">Positive gap = worse error for that group</text>
<line x1="672.8" y1="150" x2="672.8" y2="472" stroke="#9ca3af" stroke-dasharray="4 4"/>
<rect x="672.8" y="151" width="67.47491841344608" height="28" rx="8" fill="#f59e0b" opacity="0.9"/>
<text x="480" y="169" class="label">Low income</text>
<text x="850" y="169" class="num" text-anchor="end">gap=+0.088 (n=204)</text>
<rect x="636.5099392657926" y="197" width="36.29006073420736" height="28" rx="8" fill="#10b981" opacity="0.9"/>
<text x="480" y="215" class="label">Mid income</text>
<text x="850" y="215" class="num" text-anchor="end">gap=-0.047 (n=203)</text>
<rect x="641.2827535601037" y="243" width="31.517246439896237" height="28" rx="8" fill="#10b981" opacity="0.9"/>
<text x="480" y="261" class="label">High income</text>
<text x="850" y="261" class="num" text-anchor="end">gap=-0.041 (n=203)</text>
<rect x="672.0607523425485" y="289" width="0.7392476574513815" height="28" rx="8" fill="#10b981" opacity="0.9"/>
<text x="480" y="307" class="label">Urban (metro)</text>
<text x="850" y="307" class="num" text-anchor="end">gap=-0.001 (n=230)</text>
<rect x="672.8" y="335" width="0.4474393716154144" height="28" rx="8" fill="#f59e0b" opacity="0.9"/>
<text x="480" y="353" class="label">Rural (non-metro)</text>
<text x="850" y="353" class="num" text-anchor="end">gap=+0.001 (n=380)</text>
<rect x="672.8" y="381" width="156.0" height="28" rx="8" fill="#f59e0b" opacity="0.9"/>
<text x="480" y="399" class="label">Majority-BIPOC</text>
<text x="850" y="399" class="num" text-anchor="end">gap=+0.203 (n=66)</text>
<rect x="653.8735294117647" y="427" width="18.92647058823527" height="28" rx="8" fill="#10b981" opacity="0.9"/>
<text x="480" y="445" class="label">Majority-white</text>
<text x="850" y="445" class="num" text-anchor="end">gap=-0.025 (n=544)</text>
<text x="470" y="505" class="muted">Proxies: income tertiles; metro vs non-metro; Majority-BIPOC (pct_white<50%).</text>
</svg>